<?xml version="1.0" encoding="UTF-8" standalone="no"?>
<!-- Created with Inkscape (http://www.inkscape.org/) -->

<svg
   version="1.1"
   id="svg1"
   width="348.917"
   height="216.012"
   viewBox="229.688 259.961 348.917 216.012"
   sodipodi:docname="develop-ec-logo-vertical.svg"
   xmlns:inkscape="http://www.inkscape.org/namespaces/inkscape"
   xmlns:sodipodi="http://sodipodi.sourceforge.net/DTD/sodipodi-0.dtd"
   xmlns="http://www.w3.org/2000/svg"
   xmlns:svg="http://www.w3.org/2000/svg">
  <defs
     id="defs1">
    <clipPath
       clipPathUnits="userSpaceOnUse"
       id="clipPath2">
      <path
         d="M 0,841.89 H 595.276 V 0 H 0 Z"
         id="path2" />
    </clipPath>
    <clipPath
       clipPathUnits="userSpaceOnUse"
       id="clipPath4">
      <path
         d="M 0,841.89 H 595.276 V 0 H 0 Z"
         transform="translate(-229.15461,-511.11731)"
         id="path4" />
    </clipPath>
    <clipPath
       clipPathUnits="userSpaceOnUse"
       id="clipPath6">
      <path
         d="M 0,841.89 H 595.276 V 0 H 0 Z"
         transform="translate(-246.22861,-511.11731)"
         id="path6" />
    </clipPath>
    <clipPath
       clipPathUnits="userSpaceOnUse"
       id="clipPath8">
      <path
         d="M 0,841.89 H 595.276 V 0 H 0 Z"
         transform="translate(-281.29111,-511.11731)"
         id="path8" />
    </clipPath>
    <clipPath
       clipPathUnits="userSpaceOnUse"
       id="clipPath10">
      <path
         d="M 0,841.89 H 595.276 V 0 H 0 Z"
         transform="translate(-290.2552,-516.20161)"
         id="path10" />
    </clipPath>
    <clipPath
       clipPathUnits="userSpaceOnUse"
       id="clipPath12">
      <path
         d="M 0,841.89 H 595.276 V 0 H 0 Z"
         id="path12" />
    </clipPath>
    <clipPath
       clipPathUnits="userSpaceOnUse"
       id="clipPath14">
      <path
         d="M 0,841.89 H 595.276 V 0 H 0 Z"
         id="path14" />
    </clipPath>
    <clipPath
       clipPathUnits="userSpaceOnUse"
       id="clipPath16">
      <path
         d="M 0,841.89 H 595.276 V 0 H 0 Z"
         transform="translate(-401.24401,-511.11731)"
         id="path16" />
    </clipPath>
    <clipPath
       clipPathUnits="userSpaceOnUse"
       id="clipPath18">
      <path
         d="M 0,841.89 H 595.276 V 0 H 0 Z"
         transform="translate(-409.44551,-515.45771)"
         id="path18" />
    </clipPath>
    <clipPath
       clipPathUnits="userSpaceOnUse"
       id="clipPath20">
      <path
         d="M 0,841.89 H 595.276 V 0 H 0 Z"
         transform="translate(-283.19511,-640.72301)"
         id="path20" />
    </clipPath>
    <clipPath
       clipPathUnits="userSpaceOnUse"
       id="clipPath22">
      <path
         d="M 0,841.89 H 595.276 V 0 H 0 Z"
         transform="translate(-283.19511,-608.53052)"
         id="path22" />
    </clipPath>
    <clipPath
       clipPathUnits="userSpaceOnUse"
       id="clipPath24">
      <path
         d="M 0,841.89 H 595.276 V 0 H 0 Z"
         transform="translate(-283.19511,-576.33811)"
         id="path24" />
    </clipPath>
    <clipPath
       clipPathUnits="userSpaceOnUse"
       id="clipPath26">
      <path
         d="M 0,841.89 H 595.276 V 0 H 0 Z"
         transform="translate(-178.4046,-499.68841)"
         id="path26" />
    </clipPath>
    <clipPath
       clipPathUnits="userSpaceOnUse"
       id="clipPath28">
      <path
         d="M 0,841.89 H 595.276 V 0 H 0 Z"
         transform="translate(-187.96761,-499.68841)"
         id="path28" />
    </clipPath>
    <clipPath
       clipPathUnits="userSpaceOnUse"
       id="clipPath30">
      <path
         d="M 0,841.89 H 595.276 V 0 H 0 Z"
         transform="translate(-198.781,-495.40101)"
         id="path30" />
    </clipPath>
    <clipPath
       clipPathUnits="userSpaceOnUse"
       id="clipPath32">
      <path
         d="M 0,841.89 H 595.276 V 0 H 0 Z"
         id="path32" />
    </clipPath>
    <clipPath
       clipPathUnits="userSpaceOnUse"
       id="clipPath34">
      <path
         d="M 0,841.89 H 595.276 V 0 H 0 Z"
         transform="translate(-216.77491,-499.68841)"
         id="path34" />
    </clipPath>
    <clipPath
       clipPathUnits="userSpaceOnUse"
       id="clipPath36">
      <path
         d="M 0,841.89 H 595.276 V 0 H 0 Z"
         transform="translate(-228.15571,-499.68841)"
         id="path36" />
    </clipPath>
    <clipPath
       clipPathUnits="userSpaceOnUse"
       id="clipPath38">
      <path
         d="M 0,841.89 H 595.276 V 0 H 0 Z"
         transform="translate(-237.71871,-499.68841)"
         id="path38" />
    </clipPath>
    <clipPath
       clipPathUnits="userSpaceOnUse"
       id="clipPath40">
      <path
         d="M 0,841.89 H 595.276 V 0 H 0 Z"
         transform="translate(-250.20591,-495.27011)"
         id="path40" />
    </clipPath>
    <clipPath
       clipPathUnits="userSpaceOnUse"
       id="clipPath42">
      <path
         d="M 0,841.89 H 595.276 V 0 H 0 Z"
         id="path42" />
    </clipPath>
    <clipPath
       clipPathUnits="userSpaceOnUse"
       id="clipPath44">
      <path
         d="M 0,841.89 H 595.276 V 0 H 0 Z"
         transform="translate(-262.70341,-499.68841)"
         id="path44" />
    </clipPath>
    <clipPath
       clipPathUnits="userSpaceOnUse"
       id="clipPath46">
      <path
         d="M 0,841.89 H 595.276 V 0 H 0 Z"
         transform="translate(-273.5167,-495.40101)"
         id="path46" />
    </clipPath>
    <clipPath
       clipPathUnits="userSpaceOnUse"
       id="clipPath48">
      <path
         d="M 0,841.89 H 595.276 V 0 H 0 Z"
         transform="translate(-294.08311,-496.01201)"
         id="path48" />
    </clipPath>
    <clipPath
       clipPathUnits="userSpaceOnUse"
       id="clipPath50">
      <path
         d="M 0,841.89 H 595.276 V 0 H 0 Z"
         transform="translate(-308.12861,-495.40101)"
         id="path50" />
    </clipPath>
    <clipPath
       clipPathUnits="userSpaceOnUse"
       id="clipPath52">
      <path
         d="M 0,841.89 H 595.276 V 0 H 0 Z"
         transform="translate(-323.94811,-491.72471)"
         id="path52" />
    </clipPath>
    <clipPath
       clipPathUnits="userSpaceOnUse"
       id="clipPath54">
      <path
         d="M 0,841.89 H 595.276 V 0 H 0 Z"
         transform="translate(-332.29691,-499.68841)"
         id="path54" />
    </clipPath>
    <clipPath
       clipPathUnits="userSpaceOnUse"
       id="clipPath56">
      <path
         d="M 0,841.89 H 595.276 V 0 H 0 Z"
         transform="translate(-342.96901,-493.49101)"
         id="path56" />
    </clipPath>
    <clipPath
       clipPathUnits="userSpaceOnUse"
       id="clipPath58">
      <path
         d="M 0,841.89 H 595.276 V 0 H 0 Z"
         transform="translate(-351.96471,-498.97981)"
         id="path58" />
    </clipPath>
    <clipPath
       clipPathUnits="userSpaceOnUse"
       id="clipPath60">
      <path
         d="M 0,841.89 H 595.276 V 0 H 0 Z"
         transform="translate(-365.18101,-495.27011)"
         id="path60" />
    </clipPath>
    <clipPath
       clipPathUnits="userSpaceOnUse"
       id="clipPath62">
      <path
         d="M 0,841.89 H 595.276 V 0 H 0 Z"
         transform="translate(-372.11521,-494.26631)"
         id="path62" />
    </clipPath>
    <clipPath
       clipPathUnits="userSpaceOnUse"
       id="clipPath64">
      <path
         d="M 0,841.89 H 595.276 V 0 H 0 Z"
         transform="translate(-382.23031,-495.40101)"
         id="path64" />
    </clipPath>
    <clipPath
       clipPathUnits="userSpaceOnUse"
       id="clipPath66">
      <path
         d="M 0,841.89 H 595.276 V 0 H 0 Z"
         transform="translate(-393.21051,-498.97981)"
         id="path66" />
    </clipPath>
    <clipPath
       clipPathUnits="userSpaceOnUse"
       id="clipPath68">
      <path
         d="M 0,841.89 H 595.276 V 0 H 0 Z"
         id="path68" />
    </clipPath>
    <clipPath
       clipPathUnits="userSpaceOnUse"
       id="clipPath70">
      <path
         d="M 0,841.89 H 595.276 V 0 H 0 Z"
         transform="translate(-412.68061,-491.72471)"
         id="path70" />
    </clipPath>
    <clipPath
       clipPathUnits="userSpaceOnUse"
       id="clipPath72">
      <path
         d="M 0,841.89 H 595.276 V 0 H 0 Z"
         transform="translate(-421.02681,-499.68841)"
         id="path72" />
    </clipPath>
    <clipPath
       clipPathUnits="userSpaceOnUse"
       id="clipPath74">
      <path
         d="M 0,841.89 H 595.276 V 0 H 0 Z"
         id="path74" />
    </clipPath>
    <clipPath
       clipPathUnits="userSpaceOnUse"
       id="clipPath76">
      <path
         d="M 0,841.89 H 595.276 V 0 H 0 Z"
         transform="translate(-184.93611,-245.1814)"
         id="path76" />
    </clipPath>
    <clipPath
       clipPathUnits="userSpaceOnUse"
       id="clipPath78">
      <path
         d="M 0,841.89 H 595.276 V 0 H 0 Z"
         transform="translate(-202.01011,-245.1814)"
         id="path78" />
    </clipPath>
    <clipPath
       clipPathUnits="userSpaceOnUse"
       id="clipPath80">
      <path
         d="M 0,841.89 H 595.276 V 0 H 0 Z"
         transform="translate(-237.07261,-245.1814)"
         id="path80" />
    </clipPath>
    <clipPath
       clipPathUnits="userSpaceOnUse"
       id="clipPath82">
      <path
         d="M 0,841.89 H 595.276 V 0 H 0 Z"
         transform="translate(-246.03681,-250.26561)"
         id="path82" />
    </clipPath>
    <clipPath
       clipPathUnits="userSpaceOnUse"
       id="clipPath84">
      <path
         d="M 0,841.89 H 595.276 V 0 H 0 Z"
         id="path84" />
    </clipPath>
    <clipPath
       clipPathUnits="userSpaceOnUse"
       id="clipPath86">
      <path
         d="M 0,841.89 H 595.276 V 0 H 0 Z"
         id="path86" />
    </clipPath>
    <clipPath
       clipPathUnits="userSpaceOnUse"
       id="clipPath88">
      <path
         d="M 0,841.89 H 595.276 V 0 H 0 Z"
         transform="translate(-357.02551,-245.1814)"
         id="path88" />
    </clipPath>
    <clipPath
       clipPathUnits="userSpaceOnUse"
       id="clipPath90">
      <path
         d="M 0,841.89 H 595.276 V 0 H 0 Z"
         transform="translate(-365.22701,-249.52171)"
         id="path90" />
    </clipPath>
    <clipPath
       clipPathUnits="userSpaceOnUse"
       id="clipPath92">
      <path
         d="M 0,841.89 H 595.276 V 0 H 0 Z"
         transform="translate(-416.26221,-306.21451)"
         id="path92" />
    </clipPath>
    <clipPath
       clipPathUnits="userSpaceOnUse"
       id="clipPath94">
      <path
         d="M 0,841.89 H 595.276 V 0 H 0 Z"
         transform="translate(-416.26221,-274.02211)"
         id="path94" />
    </clipPath>
    <clipPath
       clipPathUnits="userSpaceOnUse"
       id="clipPath96">
      <path
         d="M 0,841.89 H 595.276 V 0 H 0 Z"
         transform="translate(-416.26221,-241.82971)"
         id="path96" />
    </clipPath>
    <clipPath
       clipPathUnits="userSpaceOnUse"
       id="clipPath98">
      <path
         d="M 0,841.89 H 595.276 V 0 H 0 Z"
         transform="translate(-134.1861,-233.75241)"
         id="path98" />
    </clipPath>
    <clipPath
       clipPathUnits="userSpaceOnUse"
       id="clipPath100">
      <path
         d="M 0,841.89 H 595.276 V 0 H 0 Z"
         transform="translate(-143.74911,-233.75241)"
         id="path100" />
    </clipPath>
    <clipPath
       clipPathUnits="userSpaceOnUse"
       id="clipPath102">
      <path
         d="M 0,841.89 H 595.276 V 0 H 0 Z"
         transform="translate(-154.5625,-229.465)"
         id="path102" />
    </clipPath>
    <clipPath
       clipPathUnits="userSpaceOnUse"
       id="clipPath104">
      <path
         d="M 0,841.89 H 595.276 V 0 H 0 Z"
         id="path104" />
    </clipPath>
    <clipPath
       clipPathUnits="userSpaceOnUse"
       id="clipPath106">
      <path
         d="M 0,841.89 H 595.276 V 0 H 0 Z"
         transform="translate(-172.5565,-233.75241)"
         id="path106" />
    </clipPath>
    <clipPath
       clipPathUnits="userSpaceOnUse"
       id="clipPath108">
      <path
         d="M 0,841.89 H 595.276 V 0 H 0 Z"
         transform="translate(-183.93711,-233.75241)"
         id="path108" />
    </clipPath>
    <clipPath
       clipPathUnits="userSpaceOnUse"
       id="clipPath110">
      <path
         d="M 0,841.89 H 595.276 V 0 H 0 Z"
         transform="translate(-193.50021,-233.75241)"
         id="path110" />
    </clipPath>
    <clipPath
       clipPathUnits="userSpaceOnUse"
       id="clipPath112">
      <path
         d="M 0,841.89 H 595.276 V 0 H 0 Z"
         transform="translate(-205.98741,-229.33411)"
         id="path112" />
    </clipPath>
    <clipPath
       clipPathUnits="userSpaceOnUse"
       id="clipPath114">
      <path
         d="M 0,841.89 H 595.276 V 0 H 0 Z"
         id="path114" />
    </clipPath>
    <clipPath
       clipPathUnits="userSpaceOnUse"
       id="clipPath116">
      <path
         d="M 0,841.89 H 595.276 V 0 H 0 Z"
         transform="translate(-218.48491,-233.75241)"
         id="path116" />
    </clipPath>
    <clipPath
       clipPathUnits="userSpaceOnUse"
       id="clipPath118">
      <path
         d="M 0,841.89 H 595.276 V 0 H 0 Z"
         transform="translate(-229.2982,-229.465)"
         id="path118" />
    </clipPath>
    <clipPath
       clipPathUnits="userSpaceOnUse"
       id="clipPath120">
      <path
         d="M 0,841.89 H 595.276 V 0 H 0 Z"
         transform="translate(-249.86461,-230.0761)"
         id="path120" />
    </clipPath>
    <clipPath
       clipPathUnits="userSpaceOnUse"
       id="clipPath122">
      <path
         d="M 0,841.89 H 595.276 V 0 H 0 Z"
         transform="translate(-263.9101,-229.465)"
         id="path122" />
    </clipPath>
    <clipPath
       clipPathUnits="userSpaceOnUse"
       id="clipPath124">
      <path
         d="M 0,841.89 H 595.276 V 0 H 0 Z"
         transform="translate(-279.72961,-225.78871)"
         id="path124" />
    </clipPath>
    <clipPath
       clipPathUnits="userSpaceOnUse"
       id="clipPath126">
      <path
         d="M 0,841.89 H 595.276 V 0 H 0 Z"
         transform="translate(-288.0784,-233.75241)"
         id="path126" />
    </clipPath>
    <clipPath
       clipPathUnits="userSpaceOnUse"
       id="clipPath128">
      <path
         d="M 0,841.89 H 595.276 V 0 H 0 Z"
         transform="translate(-298.75051,-227.55501)"
         id="path128" />
    </clipPath>
    <clipPath
       clipPathUnits="userSpaceOnUse"
       id="clipPath130">
      <path
         d="M 0,841.89 H 595.276 V 0 H 0 Z"
         transform="translate(-307.74621,-233.04381)"
         id="path130" />
    </clipPath>
    <clipPath
       clipPathUnits="userSpaceOnUse"
       id="clipPath132">
      <path
         d="M 0,841.89 H 595.276 V 0 H 0 Z"
         transform="translate(-320.96251,-229.33411)"
         id="path132" />
    </clipPath>
    <clipPath
       clipPathUnits="userSpaceOnUse"
       id="clipPath134">
      <path
         d="M 0,841.89 H 595.276 V 0 H 0 Z"
         transform="translate(-327.89671,-228.33031)"
         id="path134" />
    </clipPath>
    <clipPath
       clipPathUnits="userSpaceOnUse"
       id="clipPath136">
      <path
         d="M 0,841.89 H 595.276 V 0 H 0 Z"
         transform="translate(-338.01181,-229.465)"
         id="path136" />
    </clipPath>
    <clipPath
       clipPathUnits="userSpaceOnUse"
       id="clipPath138">
      <path
         d="M 0,841.89 H 595.276 V 0 H 0 Z"
         transform="translate(-348.99201,-233.04381)"
         id="path138" />
    </clipPath>
    <clipPath
       clipPathUnits="userSpaceOnUse"
       id="clipPath140">
      <path
         d="M 0,841.89 H 595.276 V 0 H 0 Z"
         id="path140" />
    </clipPath>
    <clipPath
       clipPathUnits="userSpaceOnUse"
       id="clipPath142">
      <path
         d="M 0,841.89 H 595.276 V 0 H 0 Z"
         transform="translate(-368.46211,-225.78871)"
         id="path142" />
    </clipPath>
    <clipPath
       clipPathUnits="userSpaceOnUse"
       id="clipPath144">
      <path
         d="M 0,841.89 H 595.276 V 0 H 0 Z"
         transform="translate(-376.80831,-233.75241)"
         id="path144" />
    </clipPath>
  </defs>
  <sodipodi:namedview
     id="namedview1"
     pagecolor="#ffffff"
     bordercolor="#000000"
     borderopacity="0.25"
     inkscape:showpageshadow="2"
     inkscape:pageopacity="0.0"
     inkscape:pagecheckerboard="0"
     inkscape:deskcolor="#d1d1d1">
    <inkscape:page
       x="0"
       y="0"
       inkscape:label="1"
       id="page1"
       width="793.70135"
       height="1122.52"
       margin="300.07599 164.336 268.22266 178.82533"
       bleed="0" />
  </sodipodi:namedview>
  <g
     id="layer-MC0"
     inkscape:groupmode="layer"
     inkscape:label="Layer 1">
    <path
       id="path1"
       d="m 182.913,515.458 h 13.746 v 16.49 h -13.746 z m -4.576,-4.341 v 25.172 h 18.172 c 1.365,0 2.492,-0.432 3.386,-1.294 0.892,-0.861 1.34,-1.942 1.34,-3.241 v -16.103 c 0,-1.275 -0.46,-2.35 -1.377,-3.223 -0.917,-0.875 -2.047,-1.311 -3.386,-1.311 z"
       style="fill:#ffffff;fill-opacity:1;fill-rule:nonzero;stroke:none"
       transform="matrix(1.3333333,0,0,-1.3333333,0,1122.52)"
       clip-path="url(#clipPath2)" />
    <path
       id="path3"
       d="m 0,0 h -18.174 c -1.302,0 -2.421,0.446 -3.357,1.338 -0.938,0.89 -1.404,1.956 -1.404,3.196 v 16.103 c 0,1.275 0.458,2.348 1.377,3.224 0.917,0.873 2.044,1.31 3.384,1.31 H 0 v -4.34 H -18.36 V 14.774 H 0 V 10.433 H -18.36 V 4.34 H 0 Z"
       style="fill:#ffffff;fill-opacity:1;fill-rule:nonzero;stroke:none"
       transform="matrix(1.3333333,0,0,-1.3333333,305.53947,441.03027)"
       clip-path="url(#clipPath4)" />
    <path
       id="path5"
       d="m 0,0 h -5.338 l -8.798,25.171 h 4.568 L -2.68,5.236 4.192,25.171 h 4.607 z"
       style="fill:#ffffff;fill-opacity:1;fill-rule:nonzero;stroke:none"
       transform="matrix(1.3333333,0,0,-1.3333333,328.3048,441.03027)"
       clip-path="url(#clipPath6)" />
    <path
       id="path7"
       d="m 0,0 h -18.174 c -1.302,0 -2.421,0.446 -3.357,1.338 -0.938,0.89 -1.404,1.956 -1.404,3.196 v 16.103 c 0,1.275 0.458,2.348 1.377,3.224 0.917,0.873 2.044,1.31 3.384,1.31 H 0 v -4.34 H -18.36 V 14.774 H 0 V 10.433 H -18.36 V 4.34 H 0 Z"
       style="fill:#ffffff;fill-opacity:1;fill-rule:nonzero;stroke:none"
       transform="matrix(1.3333333,0,0,-1.3333333,375.0548,441.03027)"
       clip-path="url(#clipPath8)" />
    <path
       id="path9"
       d="M 0,0 H 13.784 V -5.084 H -0.577 c -1.303,0 -2.421,0.446 -3.357,1.337 -0.938,0.89 -1.404,1.957 -1.404,3.197 V 20.087 H 0 Z"
       style="fill:#ffffff;fill-opacity:1;fill-rule:nonzero;stroke:none"
       transform="matrix(1.3333333,0,0,-1.3333333,387.00693,434.2512)"
       clip-path="url(#clipPath10)" />
    <path
       id="path11"
       d="m 329.335,531.948 h -17.559 v -16.49 h 17.559 z m 4.576,-0.194 v -16.103 c 0,-1.275 -0.46,-2.35 -1.377,-3.223 -0.917,-0.875 -2.046,-1.311 -3.386,-1.311 h -17.187 c -1.302,0 -2.421,0.446 -3.357,1.338 -0.937,0.89 -1.404,1.957 -1.404,3.196 v 16.103 c 0,1.276 0.458,2.349 1.377,3.224 0.917,0.873 2.044,1.311 3.384,1.311 h 17.299 c 1.315,0 2.417,-0.444 3.311,-1.33 0.892,-0.885 1.34,-1.954 1.34,-3.205"
       style="fill:#ffffff;fill-opacity:1;fill-rule:nonzero;stroke:none"
       transform="matrix(1.3333333,0,0,-1.3333333,0,1122.52)"
       clip-path="url(#clipPath12)" />
    <path
       id="path13"
       d="m 357.217,531.948 h -13.746 v -6.447 h 13.746 z m -13.746,-10.787 v -10.044 h -4.576 v 25.172 h 18.172 c 1.34,0 2.467,-0.438 3.386,-1.311 0.917,-0.875 1.378,-1.948 1.378,-3.224 v -6.059 c 0,-1.252 -0.467,-2.319 -1.396,-3.205 -0.93,-0.887 -2.053,-1.329 -3.368,-1.329 z"
       style="fill:#ffffff;fill-opacity:1;fill-rule:nonzero;stroke:none"
       transform="matrix(1.3333333,0,0,-1.3333333,0,1122.52)"
       clip-path="url(#clipPath14)" />
    <path
       id="path15"
       d="m 0,0 h -18.174 c -1.302,0 -2.421,0.446 -3.357,1.338 -0.938,0.89 -1.404,1.956 -1.404,3.196 v 16.103 c 0,1.275 0.458,2.348 1.377,3.224 0.917,0.873 2.044,1.31 3.384,1.31 H 0 v -4.34 H -18.36 V 14.774 H 0 V 10.433 H -18.36 V 4.34 H 0 Z"
       style="fill:#ffffff;fill-opacity:1;fill-rule:nonzero;stroke:none"
       transform="matrix(1.3333333,0,0,-1.3333333,534.992,441.03027)"
       clip-path="url(#clipPath16)" />
    <path
       id="path17"
       d="M 0,0 H 18.36 V -4.34 H 0.185 c -1.302,0 -2.421,0.446 -3.356,1.337 -0.938,0.89 -1.405,1.957 -1.405,3.197 v 16.103 c 0,1.275 0.459,2.348 1.378,3.223 0.916,0.873 2.044,1.311 3.383,1.311 H 18.36 V 16.49 H 0 Z"
       style="fill:#ffffff;fill-opacity:1;fill-rule:nonzero;stroke:none"
       transform="matrix(1.3333333,0,0,-1.3333333,545.92733,435.24307)"
       clip-path="url(#clipPath18)" />
    <path
       id="path19"
       d="m 0,0 -16.009,-16.009 v -1.779 -14.171 L -0.07,-16.02 H 39.742 L 55.761,0 Z"
       style="fill:#ffffff;fill-opacity:1;fill-rule:nonzero;stroke:none"
       transform="matrix(1.3333333,0,0,-1.3333333,377.59347,268.22267)"
       clip-path="url(#clipPath20)" />
    <path
       id="path21"
       d="m 0,0 -16.009,-16.009 v -1.779 -14.171 L -0.07,-16.02 H 39.742 L 55.761,0 Z"
       style="fill:#ffffff;fill-opacity:1;fill-rule:nonzero;stroke:none"
       transform="matrix(1.3333333,0,0,-1.3333333,377.59347,311.146)"
       clip-path="url(#clipPath22)" />
    <path
       id="path23"
       d="M 0,0 -16.009,-16.009 39.742,-16.02 55.761,0 Z"
       style="fill:#ffffff;fill-opacity:1;fill-rule:nonzero;stroke:none"
       transform="matrix(1.3333333,0,0,-1.3333333,377.59347,354.0692)"
       clip-path="url(#clipPath24)" />
    <path
       id="path25"
       d="M 0,0 H 5.358 V -0.709 H 0.786 V -3.774 H 5.14 V -4.506 H 0.786 V -7.769 H 5.467 V -8.51 H 0 Z"
       style="fill:#ffffff;fill-opacity:1;fill-rule:nonzero;stroke:none"
       transform="matrix(1.3333333,0,0,-1.3333333,237.8728,456.2688)"
       clip-path="url(#clipPath26)" />
    <path
       id="path27"
       d="M 0,0 H 0.85 C 2.531,-2.4 4.21,-4.78 5.902,-7.278 H 5.924 V 0 H 6.71 V -8.51 H 5.859 C 4.2,-6.143 2.498,-3.797 0.796,-1.33 H 0.786 V -8.51 H 0 Z"
       style="fill:#ffffff;fill-opacity:1;fill-rule:nonzero;stroke:none"
       transform="matrix(1.3333333,0,0,-1.3333333,250.62347,456.2688)"
       clip-path="url(#clipPath28)" />
    <path
       id="path29"
       d="m 0,0 c 0,2.673 1.877,4.462 4.245,4.462 1.593,0 3.198,-0.819 3.753,-2.488 L 7.288,1.689 C 6.776,2.988 5.586,3.73 4.257,3.73 2.424,3.73 0.829,2.346 0.829,-0.01 c 0,-2.501 1.79,-3.666 3.515,-3.666 1.789,0 3.011,1.253 3.142,2.934 H 4.529 v 0.675 H 8.26 V -4.223 H 7.617 c 0,0.634 -0.011,1.286 -0.023,1.92 H 7.54 C 6.962,-3.612 5.848,-4.408 4.213,-4.408 1.757,-4.408 0,-2.588 0,0"
       style="fill:#ffffff;fill-opacity:1;fill-rule:nonzero;stroke:none"
       transform="matrix(1.3333333,0,0,-1.3333333,265.04133,461.98533)"
       clip-path="url(#clipPath30)" />
    <path
       id="path31"
       d="m 211.307,499.688 h 0.786 v -8.51 h -0.786 z"
       style="fill:#ffffff;fill-opacity:1;fill-rule:nonzero;stroke:none"
       transform="matrix(1.3333333,0,0,-1.3333333,0,1122.52)"
       clip-path="url(#clipPath32)" />
    <path
       id="path33"
       d="M 0,0 H 0.85 C 2.531,-2.4 4.21,-4.78 5.902,-7.278 H 5.924 V 0 H 6.71 V -8.51 H 5.859 C 4.2,-6.143 2.498,-3.797 0.796,-1.33 H 0.786 V -8.51 H 0 Z"
       style="fill:#ffffff;fill-opacity:1;fill-rule:nonzero;stroke:none"
       transform="matrix(1.3333333,0,0,-1.3333333,289.0332,456.2688)"
       clip-path="url(#clipPath34)" />
    <path
       id="path35"
       d="M 0,0 H 5.358 V -0.709 H 0.786 V -3.774 H 5.14 V -4.506 H 0.786 V -7.769 H 5.467 V -8.51 H 0 Z"
       style="fill:#ffffff;fill-opacity:1;fill-rule:nonzero;stroke:none"
       transform="matrix(1.3333333,0,0,-1.3333333,304.2076,456.2688)"
       clip-path="url(#clipPath36)" />
    <path
       id="path37"
       d="M 0,0 H 5.357 V -0.709 H 0.786 V -3.774 H 5.138 V -4.506 H 0.786 v -3.263 h 4.68 V -8.51 H 0 Z"
       style="fill:#ffffff;fill-opacity:1;fill-rule:nonzero;stroke:none"
       transform="matrix(1.3333333,0,0,-1.3333333,316.95827,456.2688)"
       clip-path="url(#clipPath38)" />
    <path
       id="path39"
       d="M 0,0 C 1.232,0 2.04,0.644 2.04,1.843 2.04,3.032 1.155,3.71 -0.077,3.71 H -2.139 V 0 Z m -2.924,4.418 h 2.988 c 1.517,0 2.793,-0.893 2.793,-2.531 0,-1.463 -0.916,-2.424 -2.202,-2.552 v -0.013 c 0.762,-1.134 1.527,-2.269 2.29,-3.414 H 2.072 l -2.27,3.394 h -1.941 v -3.394 h -0.785 z"
       style="fill:#ffffff;fill-opacity:1;fill-rule:nonzero;stroke:none"
       transform="matrix(1.3333333,0,0,-1.3333333,333.60787,462.15987)"
       clip-path="url(#clipPath40)" />
    <path
       id="path41"
       d="m 257.235,499.688 h 0.786 v -8.51 h -0.786 z"
       style="fill:#ffffff;fill-opacity:1;fill-rule:nonzero;stroke:none"
       transform="matrix(1.3333333,0,0,-1.3333333,0,1122.52)"
       clip-path="url(#clipPath42)" />
    <path
       id="path43"
       d="M 0,0 H 0.85 C 2.531,-2.4 4.21,-4.78 5.902,-7.278 H 5.924 V 0 H 6.71 V -8.51 H 5.859 C 4.2,-6.143 2.498,-3.797 0.796,-1.33 H 0.786 V -8.51 H 0 Z"
       style="fill:#ffffff;fill-opacity:1;fill-rule:nonzero;stroke:none"
       transform="matrix(1.3333333,0,0,-1.3333333,350.2712,456.2688)"
       clip-path="url(#clipPath44)" />
    <path
       id="path45"
       d="m 0,0 c 0,2.673 1.877,4.462 4.244,4.462 1.593,0 3.196,-0.819 3.753,-2.488 L 7.288,1.689 C 6.775,2.988 5.586,3.73 4.254,3.73 2.421,3.73 0.829,2.346 0.829,-0.01 c 0,-2.501 1.79,-3.666 3.512,-3.666 1.79,0 3.012,1.253 3.143,2.934 H 4.527 v 0.675 H 8.259 V -4.223 H 7.615 c 0,0.634 -0.011,1.286 -0.021,1.92 H 7.539 C 6.96,-3.612 5.848,-4.408 4.21,-4.408 1.756,-4.408 0,-2.588 0,0"
       style="fill:#ffffff;fill-opacity:1;fill-rule:nonzero;stroke:none"
       transform="matrix(1.3333333,0,0,-1.3333333,364.68893,461.98533)"
       clip-path="url(#clipPath46)" />
    <path
       id="path47"
       d="m 0,0 c 0.819,0.567 1.375,1.024 1.375,1.887 0,0.829 -0.546,1.276 -1.266,1.276 -0.666,0 -1.233,-0.403 -1.233,-1.145 C -1.124,1.276 -0.578,0.632 0,0 m -0.054,-4.334 c 0.861,0 1.505,0.524 1.996,1.3 l -2.083,2.182 C -0.97,-1.386 -1.746,-1.9 -1.746,-2.837 c 0,-0.927 0.776,-1.497 1.692,-1.497 m -2.467,1.43 c 0,1.235 0.993,1.954 1.91,2.532 -0.589,0.634 -1.299,1.463 -1.299,2.39 0,1.047 0.884,1.833 2.051,1.833 1.245,0 2.019,-0.917 2.019,-1.887 0,-1.027 -0.851,-1.856 -1.724,-2.424 l 1.867,-1.974 c 0.25,0.545 0.436,1.145 0.567,1.767 L 3.569,-0.819 C 3.361,-1.605 3.121,-2.336 2.793,-2.947 L 4.572,-4.824 H 3.656 L 2.422,-3.525 C 1.8,-4.452 0.994,-5.019 -0.087,-5.019 c -1.288,0 -2.434,0.786 -2.434,2.115"
       style="fill:#ffffff;fill-opacity:1;fill-rule:nonzero;stroke:none"
       transform="matrix(1.3333333,0,0,-1.3333333,392.1108,461.17067)"
       clip-path="url(#clipPath48)" />
    <path
       id="path49"
       d="M 0,0 C 0,2.696 1.9,4.462 4.246,4.462 5.828,4.462 7.443,3.656 8,1.974 L 7.288,1.689 C 6.778,2.988 5.586,3.73 4.257,3.73 2.413,3.73 0.829,2.334 0.829,-0.01 c 0,-2.491 1.779,-3.666 3.546,-3.666 1.779,0 2.86,1.175 3.252,2.572 L 8.326,-1.353 C 7.792,-3.099 6.449,-4.408 4.3,-4.408 1.779,-4.408 0,-2.598 0,0"
       style="fill:#ffffff;fill-opacity:1;fill-rule:nonzero;stroke:none"
       transform="matrix(1.3333333,0,0,-1.3333333,410.83813,461.98533)"
       clip-path="url(#clipPath50)" />
    <path
       id="path51"
       d="m 0,0 c 1.833,0 3.414,1.558 3.414,3.697 0,2.138 -1.571,3.71 -3.414,3.71 -1.854,0 -3.448,-1.559 -3.448,-3.71 C -3.448,1.548 -1.854,0 0,0 m -4.287,3.697 c 0,2.565 1.92,4.441 4.277,4.441 2.4,0 4.267,-1.953 4.267,-4.441 0,-2.521 -1.9,-4.429 -4.278,-4.429 -2.336,0 -4.266,1.867 -4.266,4.429"
       style="fill:#ffffff;fill-opacity:1;fill-rule:nonzero;stroke:none"
       transform="matrix(1.3333333,0,0,-1.3333333,431.9308,466.88707)"
       clip-path="url(#clipPath52)" />
    <path
       id="path53"
       d="m 0,0 h 0.852 c 1.679,-2.4 3.361,-4.78 5.053,-7.278 h 0.02 V 0 H 6.711 V -8.51 H 5.858 C 4.2,-6.143 2.501,-3.797 0.796,-1.33 H 0.786 V -8.51 H 0 Z"
       style="fill:#ffffff;fill-opacity:1;fill-rule:nonzero;stroke:none"
       transform="matrix(1.3333333,0,0,-1.3333333,443.06253,456.2688)"
       clip-path="url(#clipPath54)" />
    <path
       id="path55"
       d="m 0,0 0.721,0.262 c 0.36,-1.363 1.351,-2.041 2.486,-2.041 0.949,0 2.04,0.48 2.04,1.658 0,1.115 -0.98,1.333 -1.809,1.595 L 2.642,1.725 C 1.789,1.997 0.295,2.521 0.295,4.103 c 0,1.517 1.397,2.269 2.76,2.269 1.332,0 2.444,-0.719 2.816,-2.041 L 5.173,4.049 C 4.855,5.019 4.069,5.653 2.978,5.653 1.954,5.653 1.112,5.073 1.112,4.156 1.112,3.035 2.367,2.639 2.914,2.465 L 3.743,2.192 C 4.69,1.887 6.087,1.538 6.087,-0.01 6.087,-1.528 4.747,-2.498 3.186,-2.498 1.931,-2.498 0.49,-1.866 0,0"
       style="fill:#ffffff;fill-opacity:1;fill-rule:nonzero;stroke:none"
       transform="matrix(1.3333333,0,0,-1.3333333,457.292,464.532)"
       clip-path="url(#clipPath56)" />
    <path
       id="path57"
       d="M 0,0 V 0.709 H 6.6 V 0 H 3.687 V -7.802 H 2.914 l 0,7.802 z"
       style="fill:#ffffff;fill-opacity:1;fill-rule:nonzero;stroke:none"
       transform="matrix(1.3333333,0,0,-1.3333333,469.28627,457.2136)"
       clip-path="url(#clipPath58)" />
    <path
       id="path59"
       d="m 0,0 c 1.235,0 2.041,0.644 2.041,1.843 0,1.189 -0.883,1.867 -2.115,1.867 H -2.139 V 0 Z M -2.924,4.418 H 0.067 C 1.584,4.418 2.86,3.525 2.86,1.887 2.86,0.424 1.943,-0.537 0.655,-0.665 V -0.678 C 1.42,-1.812 2.182,-2.947 2.947,-4.092 H 2.074 l -2.269,3.394 h -1.944 v -3.394 h -0.785 z"
       style="fill:#ffffff;fill-opacity:1;fill-rule:nonzero;stroke:none"
       transform="matrix(1.3333333,0,0,-1.3333333,486.908,462.15987)"
       clip-path="url(#clipPath60)" />
    <path
       id="path61"
       d="M 0,0 V 5.422 H 0.775 V 0.044 c 0,-1.823 0.883,-2.598 2.28,-2.598 1.407,0 2.28,0.775 2.28,2.598 V 5.422 H 6.11 L 6.11,0 C 6.11,-1.843 5.217,-3.273 3.022,-3.273 1.058,-3.273 0,-2.095 0,0"
       style="fill:#ffffff;fill-opacity:1;fill-rule:nonzero;stroke:none"
       transform="matrix(1.3333333,0,0,-1.3333333,496.1536,463.49827)"
       clip-path="url(#clipPath62)" />
    <path
       id="path63"
       d="M 0,0 C 0,2.696 1.9,4.462 4.246,4.462 5.828,4.462 7.443,3.656 8,1.974 L 7.288,1.689 C 6.778,2.988 5.586,3.73 4.257,3.73 2.413,3.73 0.829,2.334 0.829,-0.01 c 0,-2.491 1.779,-3.666 3.546,-3.666 1.779,0 2.86,1.175 3.252,2.572 L 8.326,-1.353 C 7.792,-3.099 6.449,-4.408 4.3,-4.408 1.779,-4.408 0,-2.598 0,0"
       style="fill:#ffffff;fill-opacity:1;fill-rule:nonzero;stroke:none"
       transform="matrix(1.3333333,0,0,-1.3333333,509.6404,461.98533)"
       clip-path="url(#clipPath64)" />
    <path
       id="path65"
       d="M 0,0 V 0.709 H 6.6 V 0 H 3.687 V -7.802 H 2.914 l 0,7.802 z"
       style="fill:#ffffff;fill-opacity:1;fill-rule:nonzero;stroke:none"
       transform="matrix(1.3333333,0,0,-1.3333333,524.28067,457.2136)"
       clip-path="url(#clipPath66)" />
    <path
       id="path67"
       d="m 403.503,499.688 h 0.786 v -8.51 h -0.786 z"
       style="fill:#ffffff;fill-opacity:1;fill-rule:nonzero;stroke:none"
       transform="matrix(1.3333333,0,0,-1.3333333,0,1122.52)"
       clip-path="url(#clipPath68)" />
    <path
       id="path69"
       d="m 0,0 c 1.833,0 3.417,1.558 3.417,3.697 0,2.138 -1.571,3.71 -3.417,3.71 -1.854,0 -3.448,-1.559 -3.448,-3.71 C -3.448,1.548 -1.854,0 0,0 m -4.287,3.697 c 0,2.565 1.92,4.441 4.277,4.441 2.4,0 4.267,-1.953 4.267,-4.441 0,-2.521 -1.9,-4.429 -4.278,-4.429 -2.336,0 -4.266,1.867 -4.266,4.429"
       style="fill:#ffffff;fill-opacity:1;fill-rule:nonzero;stroke:none"
       transform="matrix(1.3333333,0,0,-1.3333333,550.2408,466.88707)"
       clip-path="url(#clipPath70)" />
    <path
       id="path71"
       d="m 0,0 h 0.852 c 1.679,-2.4 3.361,-4.78 5.053,-7.278 h 0.02 V 0 H 6.711 V -8.51 H 5.858 C 4.2,-6.143 2.501,-3.797 0.796,-1.33 H 0.786 V -8.51 H 0 Z"
       style="fill:#ffffff;fill-opacity:1;fill-rule:nonzero;stroke:none"
       transform="matrix(1.3333333,0,0,-1.3333333,561.36907,456.2688)"
       clip-path="url(#clipPath72)" />
    <path
       id="path73"
       d="m 138.694,249.522 h 13.746 v 16.49 h -13.746 z m -4.575,-4.341 v 25.172 h 18.172 c 1.365,0 2.492,-0.432 3.386,-1.294 0.892,-0.861 1.34,-1.942 1.34,-3.241 v -16.102 c 0,-1.276 -0.461,-2.351 -1.378,-3.224 -0.917,-0.875 -2.046,-1.311 -3.386,-1.311 z"
       style="fill:#ffffff;fill-opacity:1;fill-rule:nonzero;stroke:none"
       transform="matrix(1.3333333,0,0,-1.3333333,0,1122.52)"
       clip-path="url(#clipPath74)" />
    <path
       id="path75"
       d="m 0,0 h -18.174 c -1.302,0 -2.421,0.446 -3.357,1.338 -0.938,0.889 -1.404,1.956 -1.404,3.196 v 16.103 c 0,1.275 0.458,2.348 1.377,3.224 0.917,0.873 2.044,1.31 3.384,1.31 H 0 v -4.34 H -18.36 V 14.773 H 0 v -4.34 H -18.36 V 4.34 H 0 Z"
       style="fill:#ffffff;fill-opacity:1;fill-rule:nonzero;stroke:none"
       transform="matrix(1.3333333,0,0,-1.3333333,246.58147,795.61147)"
       clip-path="url(#clipPath76)" />
    <path
       id="path77"
       d="m 0,0 h -5.338 l -8.798,25.171 h 4.568 L -2.68,5.236 4.192,25.171 H 8.8 Z"
       style="fill:#ffffff;fill-opacity:1;fill-rule:nonzero;stroke:none"
       transform="matrix(1.3333333,0,0,-1.3333333,269.3468,795.61147)"
       clip-path="url(#clipPath78)" />
    <path
       id="path79"
       d="m 0,0 h -18.174 c -1.302,0 -2.421,0.446 -3.357,1.338 -0.938,0.889 -1.404,1.956 -1.404,3.196 v 16.103 c 0,1.275 0.458,2.348 1.377,3.224 0.917,0.873 2.044,1.31 3.384,1.31 H 0 v -4.34 H -18.36 V 14.773 H 0 v -4.34 H -18.36 V 4.34 H 0 Z"
       style="fill:#ffffff;fill-opacity:1;fill-rule:nonzero;stroke:none"
       transform="matrix(1.3333333,0,0,-1.3333333,316.0968,795.61147)"
       clip-path="url(#clipPath80)" />
    <path
       id="path81"
       d="M 0,0 H 13.784 V -5.084 H -0.577 c -1.303,0 -2.421,0.446 -3.357,1.337 -0.938,0.89 -1.404,1.957 -1.404,3.197 V 20.087 H 0 Z"
       style="fill:#ffffff;fill-opacity:1;fill-rule:nonzero;stroke:none"
       transform="matrix(1.3333333,0,0,-1.3333333,328.04907,788.83253)"
       clip-path="url(#clipPath82)" />
    <path
       id="path83"
       d="m 285.117,266.012 h -17.559 v -16.49 h 17.559 z m 4.576,-0.194 v -16.102 c 0,-1.276 -0.461,-2.351 -1.378,-3.224 -0.917,-0.875 -2.046,-1.311 -3.386,-1.311 h -17.186 c -1.303,0 -2.421,0.446 -3.357,1.338 -0.938,0.89 -1.405,1.957 -1.405,3.197 v 16.102 c 0,1.276 0.459,2.349 1.378,3.224 0.917,0.873 2.044,1.311 3.384,1.311 h 17.299 c 1.315,0 2.417,-0.444 3.311,-1.33 0.892,-0.885 1.34,-1.954 1.34,-3.205"
       style="fill:#ffffff;fill-opacity:1;fill-rule:nonzero;stroke:none"
       transform="matrix(1.3333333,0,0,-1.3333333,0,1122.52)"
       clip-path="url(#clipPath84)" />
    <path
       id="path85"
       d="m 312.999,266.012 h -13.746 v -6.447 h 13.746 z m -13.746,-10.787 v -10.044 h -4.576 v 25.172 h 18.172 c 1.34,0 2.467,-0.438 3.386,-1.311 0.917,-0.875 1.377,-1.948 1.377,-3.224 v -6.059 c 0,-1.252 -0.467,-2.319 -1.396,-3.205 -0.929,-0.887 -2.052,-1.329 -3.367,-1.329 z"
       style="fill:#ffffff;fill-opacity:1;fill-rule:nonzero;stroke:none"
       transform="matrix(1.3333333,0,0,-1.3333333,0,1122.52)"
       clip-path="url(#clipPath86)" />
    <path
       id="path87"
       d="m 0,0 h -18.174 c -1.302,0 -2.421,0.446 -3.357,1.338 -0.938,0.889 -1.404,1.956 -1.404,3.196 v 16.103 c 0,1.275 0.458,2.348 1.377,3.224 0.917,0.873 2.044,1.31 3.384,1.31 H 0 v -4.34 H -18.36 V 14.773 H 0 v -4.34 H -18.36 V 4.34 H 0 Z"
       style="fill:#ffffff;fill-opacity:1;fill-rule:nonzero;stroke:none"
       transform="matrix(1.3333333,0,0,-1.3333333,476.034,795.61147)"
       clip-path="url(#clipPath88)" />
    <path
       id="path89"
       d="M 0,0 H 18.36 V -4.34 H 0.185 c -1.302,0 -2.421,0.446 -3.356,1.337 -0.938,0.89 -1.405,1.957 -1.405,3.197 v 16.103 c 0,1.275 0.459,2.348 1.378,3.223 0.916,0.873 2.044,1.311 3.383,1.311 H 18.36 V 16.49 H 0 Z"
       style="fill:#ffffff;fill-opacity:1;fill-rule:nonzero;stroke:none"
       transform="matrix(1.3333333,0,0,-1.3333333,486.96933,789.8244)"
       clip-path="url(#clipPath90)" />
    <path
       id="path91"
       d="m 0,0 -16.009,-16.009 v -1.779 -14.171 L -0.07,-16.02 H 39.742 L 55.761,0 Z"
       style="fill:#ffffff;fill-opacity:1;fill-rule:nonzero;stroke:none"
       transform="matrix(1.3333333,0,0,-1.3333333,555.01627,714.234)"
       clip-path="url(#clipPath92)" />
    <path
       id="path93"
       d="m 0,0 -16.009,-16.009 v -1.779 -14.171 L -0.07,-16.02 H 39.742 L 55.761,0 Z"
       style="fill:#ffffff;fill-opacity:1;fill-rule:nonzero;stroke:none"
       transform="matrix(1.3333333,0,0,-1.3333333,555.01627,757.1572)"
       clip-path="url(#clipPath94)" />
    <path
       id="path95"
       d="M 0,0 -16.009,-16.009 39.742,-16.02 55.761,0 Z"
       style="fill:#ffffff;fill-opacity:1;fill-rule:nonzero;stroke:none"
       transform="matrix(1.3333333,0,0,-1.3333333,555.01627,800.0804)"
       clip-path="url(#clipPath96)" />
    <path
       id="path97"
       d="M 0,0 H 5.358 V -0.709 H 0.786 V -3.774 H 5.14 V -4.506 H 0.786 V -7.769 H 5.467 V -8.51 H 0 Z"
       style="fill:#ffffff;fill-opacity:1;fill-rule:nonzero;stroke:none"
       transform="matrix(1.3333333,0,0,-1.3333333,178.9148,810.85013)"
       clip-path="url(#clipPath98)" />
    <path
       id="path99"
       d="M 0,0 H 0.85 C 2.531,-2.4 4.21,-4.78 5.902,-7.278 H 5.924 V 0 H 6.71 V -8.51 H 5.859 C 4.2,-6.143 2.498,-3.797 0.796,-1.33 H 0.786 V -8.51 H 0 Z"
       style="fill:#ffffff;fill-opacity:1;fill-rule:nonzero;stroke:none"
       transform="matrix(1.3333333,0,0,-1.3333333,191.66547,810.85013)"
       clip-path="url(#clipPath100)" />
    <path
       id="path101"
       d="m 0,0 c 0,2.673 1.877,4.462 4.245,4.462 1.593,0 3.198,-0.819 3.753,-2.488 L 7.288,1.689 C 6.776,2.988 5.586,3.73 4.257,3.73 2.423,3.73 0.829,2.346 0.829,-0.01 c 0,-2.501 1.79,-3.666 3.515,-3.666 1.789,0 3.011,1.253 3.142,2.934 H 4.529 v 0.675 H 8.26 V -4.223 H 7.617 c 0,0.634 -0.011,1.286 -0.023,1.92 H 7.54 C 6.962,-3.612 5.848,-4.408 4.213,-4.408 1.757,-4.408 0,-2.588 0,0"
       style="fill:#ffffff;fill-opacity:1;fill-rule:nonzero;stroke:none"
       transform="matrix(1.3333333,0,0,-1.3333333,206.08333,816.56667)"
       clip-path="url(#clipPath102)" />
    <path
       id="path103"
       d="m 167.088,233.752 h 0.786 v -8.51 h -0.786 z"
       style="fill:#ffffff;fill-opacity:1;fill-rule:nonzero;stroke:none"
       transform="matrix(1.3333333,0,0,-1.3333333,0,1122.52)"
       clip-path="url(#clipPath104)" />
    <path
       id="path105"
       d="M 0,0 H 0.85 C 2.531,-2.4 4.21,-4.78 5.902,-7.278 H 5.924 V 0 H 6.71 V -8.51 H 5.859 C 4.2,-6.143 2.498,-3.797 0.796,-1.33 H 0.786 V -8.51 H 0 Z"
       style="fill:#ffffff;fill-opacity:1;fill-rule:nonzero;stroke:none"
       transform="matrix(1.3333333,0,0,-1.3333333,230.07533,810.85013)"
       clip-path="url(#clipPath106)" />
    <path
       id="path107"
       d="M 0,0 H 5.358 V -0.709 H 0.786 V -3.774 H 5.14 V -4.506 H 0.786 V -7.769 H 5.467 V -8.51 H 0 Z"
       style="fill:#ffffff;fill-opacity:1;fill-rule:nonzero;stroke:none"
       transform="matrix(1.3333333,0,0,-1.3333333,245.24947,810.85013)"
       clip-path="url(#clipPath108)" />
    <path
       id="path109"
       d="M 0,0 H 5.357 V -0.709 H 0.786 V -3.774 H 5.138 V -4.506 H 0.786 v -3.263 h 4.68 V -8.51 H 0 Z"
       style="fill:#ffffff;fill-opacity:1;fill-rule:nonzero;stroke:none"
       transform="matrix(1.3333333,0,0,-1.3333333,258.00027,810.85013)"
       clip-path="url(#clipPath110)" />
    <path
       id="path111"
       d="M 0,0 C 1.232,0 2.04,0.644 2.04,1.843 2.04,3.032 1.155,3.71 -0.077,3.71 H -2.139 V 0 Z m -2.924,4.418 h 2.988 c 1.517,0 2.793,-0.893 2.793,-2.531 0,-1.463 -0.916,-2.424 -2.202,-2.552 v -0.013 c 0.762,-1.134 1.527,-2.269 2.29,-3.414 H 2.072 l -2.27,3.394 h -1.941 v -3.394 h -0.785 z"
       style="fill:#ffffff;fill-opacity:1;fill-rule:nonzero;stroke:none"
       transform="matrix(1.3333333,0,0,-1.3333333,274.64987,816.7412)"
       clip-path="url(#clipPath112)" />
    <path
       id="path113"
       d="m 213.017,233.752 h 0.786 v -8.51 h -0.786 z"
       style="fill:#ffffff;fill-opacity:1;fill-rule:nonzero;stroke:none"
       transform="matrix(1.3333333,0,0,-1.3333333,0,1122.52)"
       clip-path="url(#clipPath114)" />
    <path
       id="path115"
       d="M 0,0 H 0.85 C 2.531,-2.4 4.21,-4.78 5.902,-7.278 H 5.924 V 0 H 6.71 V -8.51 H 5.859 C 4.2,-6.143 2.498,-3.797 0.796,-1.33 H 0.786 V -8.51 H 0 Z"
       style="fill:#ffffff;fill-opacity:1;fill-rule:nonzero;stroke:none"
       transform="matrix(1.3333333,0,0,-1.3333333,291.3132,810.85013)"
       clip-path="url(#clipPath116)" />
    <path
       id="path117"
       d="m 0,0 c 0,2.673 1.877,4.462 4.244,4.462 1.593,0 3.196,-0.819 3.753,-2.488 L 7.288,1.689 C 6.775,2.988 5.586,3.73 4.254,3.73 2.421,3.73 0.829,2.346 0.829,-0.01 c 0,-2.501 1.79,-3.666 3.512,-3.666 1.79,0 3.012,1.253 3.143,2.934 H 4.527 v 0.675 H 8.259 V -4.223 H 7.615 c 0,0.634 -0.011,1.286 -0.021,1.92 H 7.539 C 6.96,-3.612 5.848,-4.408 4.21,-4.408 1.756,-4.408 0,-2.588 0,0"
       style="fill:#ffffff;fill-opacity:1;fill-rule:nonzero;stroke:none"
       transform="matrix(1.3333333,0,0,-1.3333333,305.73093,816.56667)"
       clip-path="url(#clipPath118)" />
    <path
       id="path119"
       d="m 0,0 c 0.819,0.567 1.375,1.024 1.375,1.887 0,0.829 -0.546,1.276 -1.266,1.276 -0.666,0 -1.233,-0.403 -1.233,-1.145 C -1.124,1.276 -0.578,0.632 0,0 m -0.054,-4.334 c 0.861,0 1.505,0.524 1.996,1.299 l -2.083,2.183 C -0.97,-1.386 -1.746,-1.9 -1.746,-2.837 c 0,-0.927 0.776,-1.497 1.692,-1.497 m -2.467,1.43 c 0,1.235 0.993,1.954 1.91,2.532 -0.589,0.634 -1.299,1.463 -1.299,2.39 0,1.047 0.884,1.833 2.051,1.833 1.245,0 2.019,-0.917 2.019,-1.887 0,-1.027 -0.851,-1.856 -1.724,-2.424 l 1.867,-1.974 c 0.25,0.544 0.436,1.145 0.567,1.767 L 3.568,-0.819 C 3.361,-1.605 3.121,-2.336 2.793,-2.947 L 4.572,-4.824 H 3.656 L 2.422,-3.525 C 1.8,-4.452 0.994,-5.019 -0.087,-5.019 c -1.288,0 -2.434,0.786 -2.434,2.115"
       style="fill:#ffffff;fill-opacity:1;fill-rule:nonzero;stroke:none"
       transform="matrix(1.3333333,0,0,-1.3333333,333.1528,815.75187)"
       clip-path="url(#clipPath120)" />
    <path
       id="path121"
       d="M 0,0 C 0,2.696 1.9,4.462 4.246,4.462 5.828,4.462 7.443,3.656 8,1.974 L 7.288,1.689 C 6.778,2.988 5.586,3.73 4.257,3.73 2.413,3.73 0.829,2.334 0.829,-0.01 c 0,-2.491 1.779,-3.666 3.546,-3.666 1.779,0 2.86,1.175 3.252,2.572 L 8.326,-1.353 C 7.792,-3.099 6.449,-4.408 4.3,-4.408 1.779,-4.408 0,-2.598 0,0"
       style="fill:#ffffff;fill-opacity:1;fill-rule:nonzero;stroke:none"
       transform="matrix(1.3333333,0,0,-1.3333333,351.88013,816.56667)"
       clip-path="url(#clipPath122)" />
    <path
       id="path123"
       d="m 0,0 c 1.833,0 3.414,1.558 3.414,3.697 0,2.138 -1.571,3.71 -3.414,3.71 -1.854,0 -3.448,-1.559 -3.448,-3.71 C -3.448,1.548 -1.854,0 0,0 m -4.287,3.697 c 0,2.565 1.92,4.441 4.277,4.441 2.4,0 4.267,-1.953 4.267,-4.441 0,-2.521 -1.9,-4.429 -4.278,-4.429 -2.336,0 -4.266,1.867 -4.266,4.429"
       style="fill:#ffffff;fill-opacity:1;fill-rule:nonzero;stroke:none"
       transform="matrix(1.3333333,0,0,-1.3333333,372.9728,821.4684)"
       clip-path="url(#clipPath124)" />
    <path
       id="path125"
       d="m 0,0 h 0.852 c 1.679,-2.4 3.361,-4.78 5.053,-7.278 h 0.02 V 0 H 6.711 V -8.51 H 5.858 C 4.2,-6.143 2.501,-3.797 0.796,-1.33 H 0.786 V -8.51 H 0 Z"
       style="fill:#ffffff;fill-opacity:1;fill-rule:nonzero;stroke:none"
       transform="matrix(1.3333333,0,0,-1.3333333,384.10453,810.85013)"
       clip-path="url(#clipPath126)" />
    <path
       id="path127"
       d="m 0,0 0.721,0.262 c 0.36,-1.363 1.351,-2.041 2.486,-2.041 0.949,0 2.04,0.48 2.04,1.658 0,1.115 -0.98,1.333 -1.809,1.595 L 2.642,1.725 C 1.789,1.997 0.295,2.521 0.295,4.102 c 0,1.518 1.397,2.27 2.76,2.27 1.332,0 2.444,-0.719 2.816,-2.041 L 5.173,4.049 C 4.855,5.019 4.069,5.653 2.978,5.653 1.954,5.653 1.112,5.073 1.112,4.156 1.112,3.035 2.367,2.639 2.914,2.465 L 3.743,2.192 C 4.69,1.887 6.087,1.538 6.087,-0.01 6.087,-1.528 4.747,-2.498 3.186,-2.498 1.931,-2.498 0.49,-1.866 0,0"
       style="fill:#ffffff;fill-opacity:1;fill-rule:nonzero;stroke:none"
       transform="matrix(1.3333333,0,0,-1.3333333,398.334,819.11333)"
       clip-path="url(#clipPath128)" />
    <path
       id="path129"
       d="M 0,0 V 0.709 H 6.6 V 0 H 3.687 V -7.802 H 2.914 l 0,7.802 z"
       style="fill:#ffffff;fill-opacity:1;fill-rule:nonzero;stroke:none"
       transform="matrix(1.3333333,0,0,-1.3333333,410.32827,811.79493)"
       clip-path="url(#clipPath130)" />
    <path
       id="path131"
       d="m 0,0 c 1.235,0 2.041,0.644 2.041,1.843 0,1.189 -0.883,1.867 -2.115,1.867 H -2.139 V 0 Z M -2.924,4.418 H 0.067 C 1.584,4.418 2.86,3.525 2.86,1.887 2.86,0.424 1.943,-0.537 0.655,-0.665 V -0.678 C 1.42,-1.812 2.182,-2.947 2.947,-4.092 H 2.074 l -2.269,3.394 h -1.944 v -3.394 h -0.785 z"
       style="fill:#ffffff;fill-opacity:1;fill-rule:nonzero;stroke:none"
       transform="matrix(1.3333333,0,0,-1.3333333,427.95,816.7412)"
       clip-path="url(#clipPath132)" />
    <path
       id="path133"
       d="M 0,0 V 5.422 H 0.775 V 0.044 c 0,-1.823 0.883,-2.598 2.28,-2.598 1.407,0 2.28,0.775 2.28,2.598 V 5.422 H 6.11 L 6.11,0 C 6.11,-1.843 5.217,-3.273 3.022,-3.273 1.058,-3.273 0,-2.095 0,0"
       style="fill:#ffffff;fill-opacity:1;fill-rule:nonzero;stroke:none"
       transform="matrix(1.3333333,0,0,-1.3333333,437.1956,818.0796)"
       clip-path="url(#clipPath134)" />
    <path
       id="path135"
       d="M 0,0 C 0,2.696 1.9,4.462 4.246,4.462 5.828,4.462 7.443,3.656 8,1.974 L 7.288,1.689 C 6.778,2.988 5.586,3.73 4.257,3.73 2.413,3.73 0.829,2.334 0.829,-0.01 c 0,-2.491 1.779,-3.666 3.546,-3.666 1.779,0 2.86,1.175 3.252,2.572 L 8.326,-1.353 C 7.792,-3.099 6.449,-4.408 4.3,-4.408 1.779,-4.408 0,-2.598 0,0"
       style="fill:#ffffff;fill-opacity:1;fill-rule:nonzero;stroke:none"
       transform="matrix(1.3333333,0,0,-1.3333333,450.6824,816.56667)"
       clip-path="url(#clipPath136)" />
    <path
       id="path137"
       d="M 0,0 V 0.709 H 6.6 V 0 H 3.687 V -7.802 H 2.914 l 0,7.802 z"
       style="fill:#ffffff;fill-opacity:1;fill-rule:nonzero;stroke:none"
       transform="matrix(1.3333333,0,0,-1.3333333,465.32267,811.79493)"
       clip-path="url(#clipPath138)" />
    <path
       id="path139"
       d="m 359.284,233.752 h 0.786 v -8.51 h -0.786 z"
       style="fill:#ffffff;fill-opacity:1;fill-rule:nonzero;stroke:none"
       transform="matrix(1.3333333,0,0,-1.3333333,0,1122.52)"
       clip-path="url(#clipPath140)" />
    <path
       id="path141"
       d="m 0,0 c 1.833,0 3.417,1.558 3.417,3.697 0,2.138 -1.571,3.71 -3.417,3.71 -1.854,0 -3.448,-1.559 -3.448,-3.71 C -3.448,1.548 -1.854,0 0,0 m -4.287,3.697 c 0,2.565 1.92,4.441 4.277,4.441 2.4,0 4.267,-1.953 4.267,-4.441 0,-2.521 -1.9,-4.429 -4.278,-4.429 -2.336,0 -4.266,1.867 -4.266,4.429"
       style="fill:#ffffff;fill-opacity:1;fill-rule:nonzero;stroke:none"
       transform="matrix(1.3333333,0,0,-1.3333333,491.2828,821.4684)"
       clip-path="url(#clipPath142)" />
    <path
       id="path143"
       d="m 0,0 h 0.852 c 1.679,-2.4 3.361,-4.78 5.053,-7.278 h 0.02 V 0 H 6.711 V -8.51 H 5.859 C 4.2,-6.143 2.501,-3.797 0.796,-1.33 H 0.786 V -8.51 H 0 Z"
       style="fill:#ffffff;fill-opacity:1;fill-rule:nonzero;stroke:none"
       transform="matrix(1.3333333,0,0,-1.3333333,502.41107,810.85013)"
       clip-path="url(#clipPath144)" />
  </g>
</svg>
